<?xml version="1.0" encoding="UTF-8" standalone="no"?>
<svg
   id="Layer_1"
   data-name="Layer 1"
   viewBox="0 0 4500.0498 1071.0999"
   version="1.1"
   sodipodi:docname="logo.svg"
   width="4500.0498"
   height="1071.0999"
   inkscape:version="1.1.1 (3bf5ae0d25, 2021-09-20)"
   xmlns:inkscape="http://www.inkscape.org/namespaces/inkscape"
   xmlns:sodipodi="http://sodipodi.sourceforge.net/DTD/sodipodi-0.dtd"
   xmlns="http://www.w3.org/2000/svg"
   xmlns:svg="http://www.w3.org/2000/svg">
  <defs
     id="defs11" />
  <sodipodi:namedview
     id="namedview9"
     pagecolor="#ffffff"
     bordercolor="#666666"
     borderopacity="1.0"
     inkscape:pageshadow="2"
     inkscape:pageopacity="0.0"
     inkscape:pagecheckerboard="0"
     showgrid="false"
     inkscape:zoom="0.21326345"
     inkscape:cx="2224.9475"
     inkscape:cy="475.93715"
     inkscape:window-width="1920"
     inkscape:window-height="1017"
     inkscape:window-x="-8"
     inkscape:window-y="-8"
     inkscape:window-maximized="1"
     inkscape:current-layer="Layer_1" />
  <title
     id="title2">logo BTELAB negro_escalable</title>
  <path
     d="m 0.02,0.49 c 4,-0.12 8,-0.33 12,-0.33 q 546.48,-0.1 1093,-0.16 540,0 1080,0 h 14.33 v 84.49 a 10.48,10.48 0 0 1 -0.84,0.85 3.21,3.21 0 0 1 -0.83,0.48 4,4 0 0 1 -1,0.22 c -0.66,0.07 -1.32,0.12 -2,0.16 -0.33,0 -0.67,0 -1,0 h -622 l -1,0.06 a 8.49,8.49 0 0 0 -1,0.1 5.91,5.91 0 0 0 -1,0.29 c -0.3,0.11 -0.59,0.27 -1.56,0.72 v 383.48 h 592 v 86.44 c -24.41,1.16 -48.91,0.34 -73.38,0.49 -24.66,0.15 -49.33,0 -74,0 h -444.58 v 420.27 h 639.93 c 0.43,29.1 0.13,57.22 0.22,85.1 -8.14,2.13 -724.49,2.88 -741.76,0.85 0,-32.32 -0.07,-64.83 -0.09,-97.34 q 0,-49 0,-98 V 83.98 l -287.94,1.94 v 978.19 h -101.5 V 86.75 H 728.46 a 51.52,51.52 0 0 0 3.91,5.6 c 39.18,42.29 57,93 59.73,149.89 2.39,49 -6.15,95.69 -29.95,138.84 -32.95,59.72 -81.37,100.37 -148.33,117.35 a 8.67,8.67 0 0 0 -5.39,3.79 c 3.63,0.75 7.23,1.62 10.88,2.23 72.63,12.15 131.08,46.84 172,108.88 22.46,34 35,71.66 39.15,112.11 4.87,47.6 1.76,94.63 -13,140.3 -24,74.13 -71.24,127.71 -143.23,158.79 a 481.19,481.19 0 0 1 -136.55,36.27 c -29.86,3.44 -59.81,4.55 -89.81,4.57 q -217.49,0.12 -435,0 c -4.29,0 -8.58,-0.57 -12.87,-0.88 q 0.02,-532 0.02,-1064 z m 103.26,978.23 h 12.74 q 164,0 327.91,0.06 c 32,0 63.92,-1.63 95.63,-6.34 35.55,-5.28 69.6,-14.91 100.69,-33.57 40.35,-24.21 67.8,-58.78 81.15,-103.77 11.84,-39.91 13.34,-80.79 5.84,-121.7 -9.93,-54.2 -39.81,-94.3 -88,-120.91 a 271.8,271.8 0 0 0 -60.13,-24 C 537.32,557.06 494.59,553.58 451.48,553.55 q -169,-0.11 -337.9,0 h -10.3 v 425.19 z m -0.12,-512 h 11.06 c 112.31,0 224.61,0.22 336.92,-0.2 a 509.38,509.38 0 0 0 63.72,-4.36 c 34.34,-4.47 66.77,-15.5 96.36,-33.82 39.51,-24.46 65.67,-58.84 75.92,-104.58 5.84,-26.06 4.84,-52.3 1.09,-78.51 C 678.57,177.72 642.75,130.73 578.56,106.19 541.67,92.09 503.12,86.72 463.95,86.58 346.32,86.23 228.68,86.49 111.02,86.49 c -2.53,0 -5.05,0.45 -7.89,0.72 v 379.6 z"
     id="path4" />
  <path
     d="m 4500.02,1070.49 c -3.32,0.17 -6.64,0.48 -10,0.48 -151,0 -302,0.38 -453,-0.16 -66.07,-0.24 -130.8,-9.81 -192.67,-34.4 -6.19,-2.46 -12.3,-5.1 -18.39,-7.79 -72.54,-32 -118.59,-87.25 -142.06,-162.29 -10.73,-34.31 -21.31,-68.68 -32.59,-102.81 -71.67,-216.88 -143.86,-427 -215.65,-643.89 a 31.51,31.51 0 0 0 -5.64,-11.14 c -103,321.6 -205.71,636.55 -308.95,958.8 h -816.6 V 6.49 h 100.77 v 959 h 655.15 L 3379.1,6.89 h 103.85 l 216.82,631.25 c 21.14,-37.26 47.37,-67.17 81.56,-89.62 34.19,-22.45 72.45,-34.53 113.33,-40.46 -2,-4.89 -6.22,-4.4 -9.34,-5.21 a 212.73,212.73 0 0 1 -80.75,-40.28 c -50.34,-40.35 -80.16,-92.72 -90.72,-156.14 -6.39,-38.35 -4.21,-76.52 5.24,-114 14,-55.49 46.34,-98.27 93.44,-130.08 35.33,-23.86 74.76,-37.61 116.36,-45.67 42.35,-8.2 85.13,-11.58 128.21,-11.58 q 215,0 430,0 c 4.32,0 8.63,-0.33 12.95,-0.5 V 1070.49 Z M 4399.74,559.16 c -3.57,-0.18 -6.18,-0.42 -8.78,-0.42 q -173.49,0 -347,0.13 a 485.29,485.29 0 0 0 -97.32,9.58 c -34.18,7.07 -66.76,18.24 -96.2,37.47 q -57.08,37.29 -72.69,103.66 c -8.45,36.28 -8.14,72.81 -1.42,109.18 10.12,54.76 39,97 87,125.8 a 223.94,223.94 0 0 0 55.87,23.89 c 40.75,11.27 82.5,15.54 124.58,15.69 115.66,0.42 231.31,0.18 347,0.18 2.88,0 5.77,-0.39 9,-0.62 V 559.16 Z m -0.05,-467.28 h -14.08 q -162.45,0 -324.9,0.12 c -20.63,0 -41.32,0.87 -61.86,2.65 a 266.37,266.37 0 0 0 -82.14,20 c -51.61,22 -84.48,60.14 -97.91,114.73 a 245.77,245.77 0 0 0 -6.75,69.4 c 1.78,42 16.69,78.46 46.35,108.56 17.79,18.05 38.85,31.19 62,41.25 38.86,16.9 79.85,23.38 121.77,23.54 116.63,0.44 233.26,0.19 349.89,0.18 a 72.54,72.54 0 0 0 7.64,-0.79 V 91.89 Z"
     id="path6" />
</svg>
